<svg xmlns="http://www.w3.org/2000/svg" xmlns:xlink="http://www.w3.org/1999/xlink" viewBox="0 0 497.24 275"><defs><style>.cls-1,.cls-12,.cls-13,.cls-14,.cls-15,.cls-5,.cls-8,.cls-9{fill:none;}.cls-11,.cls-16,.cls-2{fill:#fff;}.cls-10,.cls-11,.cls-12,.cls-13,.cls-14,.cls-15,.cls-2,.cls-5,.cls-6,.cls-9{stroke:#231815;}.cls-10,.cls-11,.cls-12,.cls-13,.cls-14,.cls-15,.cls-2,.cls-5,.cls-6,.cls-8,.cls-9{stroke-linecap:round;stroke-linejoin:round;}.cls-10,.cls-2,.cls-5,.cls-6{stroke-width:4px;}.cls-3{clip-path:url(#clip-path);}.cls-10,.cls-4{fill:#ffea55;}.cls-6{fill:#00bfff;}.cls-7{fill:#231815;}.cls-8{stroke:#000;}.cls-12,.cls-13,.cls-14,.cls-15,.cls-8{stroke-width:2px;}.cls-11,.cls-9{stroke-width:3px;}.cls-13{stroke-dasharray:5.06 7.59;}.cls-14{stroke-dasharray:5.07 7.6;}.cls-15{stroke-dasharray:3.17 4.75;}.cls-17{fill:#333;}</style><clipPath id="clip-path"><path class="cls-1" d="M172.19,174.39H155.85l-11.72,26.13-1.93-5.29c-1.62-13.79-5.49-25.7-12.65-34.79h0a44.91,44.91,0,0,0-12.28-10.8c-.31-.18-.83-.46-1.15-.62-8.25-4.18-10.9-5-13.41-10.21-3.13-6.41-5.6-20.5,1.05-23.09,11.94-4.64,21.95-19.61,26.6-35a16.84,16.84,0,0,0-3.72-16.11l-23.59-26H72.49l-23.59,26a16.82,16.82,0,0,0-3.72,16.11c4.64,15.41,14.66,30.38,26.6,35,6.65,2.59,4.18,16.68,1,23.09-2.51,5.16-5.17,6-13.41,10.21-.32.16-.84.44-1.15.62-26,15.56-28.68,51.21-24,92.6a17,17,0,0,0,16.84,15.08h81.3a7.86,7.86,0,0,0,7.79-6.81c1.07-8,1.9-15.8,2.4-23.33,2.69,1.8,5.14,2.92,6.89,2.71C156.65,229,186,181.2,186,181.2Z"/></clipPath></defs><title>アセット 7</title><g id="レイヤー_2" data-name="レイヤー 2"><g id="レイヤー_1-2" data-name="レイヤー 1"><path class="cls-2" d="M161,158.58s-10.41-6.23-11.77-1.15-2.37,16,6.36,14.47S161,158.58,161,158.58Z"/><g class="cls-3"><path class="cls-4" d="M65.8,145.76s15.65,12.75,43.94,0l13-5.85,71.72,20.42L157.6,258.1l-147.45.77s13.61-82.77,17-85.17S65.8,145.76,65.8,145.76Z"/></g><path class="cls-5" d="M172.19,174.39H155.85l-11.72,26.13-1.93-5.29c-1.62-13.79-5.49-25.7-12.65-34.79h0a44.91,44.91,0,0,0-12.28-10.8c-.31-.18-.83-.46-1.15-.62-8.25-4.18-10.9-5-13.41-10.21-3.13-6.41-5.6-20.5,1.05-23.09,11.94-4.64,21.95-19.61,26.6-35a16.84,16.84,0,0,0-3.72-16.11l-23.59-26H72.49l-23.59,26a16.82,16.82,0,0,0-3.72,16.11c4.64,15.41,14.66,30.38,26.6,35,6.65,2.59,4.18,16.68,1,23.09-2.51,5.16-5.17,6-13.41,10.21-.32.16-.84.44-1.15.62-26,15.56-28.68,51.21-24,92.6a17,17,0,0,0,16.84,15.08h86.32c1.53-10.36,2.72-20.47,3.36-30.14,2.69,1.8,6.95,2.92,8.7,2.71C156.65,229,186,181.2,186,181.2Z"/><path class="cls-6" d="M98.69,41.35S86,66.9,56.16,70.41c0,0-8.17,26.91,6.46,44.61,0,0-34.7.94-30.62-44.61,0,0,7.83-67.17,65.59-56.83,43.64,4.6,73.58,102.38,10,102.38,0,0,21.58-14.72,11-47.73C118.6,68.23,99.71,56.32,98.69,41.35Z"/><ellipse class="cls-4" cx="34.92" cy="203.38" rx="18.7" ry="8.11"/><circle class="cls-7" cx="73.74" cy="80.56" r="2.18"/><circle class="cls-7" cx="99.6" cy="80.56" r="2.18"/><path d="M96.43,70l.19-.17c.06,0-.19.11,0,0l.48-.28.25-.11c-.24.1.06,0,.09,0,.19-.07.39-.13.58-.18s.46-.12.69-.16l.39-.06c-.2,0,.12,0,.15,0a10.6,10.6,0,0,1,1.49,0,8.08,8.08,0,0,1,2.58.55,4.11,4.11,0,0,1,2,1.63c.76,1.23,2.71.1,1.94-1.14a7.76,7.76,0,0,0-6.38-3.28c-2-.12-4.56.22-6,1.71A1.12,1.12,0,0,0,96.43,70Z"/><path class="cls-8" d="M84.63,90.23a2.11,2.11,0,0,1,2,0"/><path class="cls-8" d="M94.38,100.11a7.71,7.71,0,1,1-15.42,0C79,95.85,94.38,95.85,94.38,100.11Z"/><path class="cls-8" d="M64.87,90s1.36-1,1.81-.54,2.5-.12,2.5-.12"/><path class="cls-8" d="M104.16,90s1.36-1,1.82-.54,2.49-.12,2.49-.12"/><path class="cls-5" d="M82.36,43S64,72,51.06,67.33"/><path class="cls-5" d="M73.74,33.66s-21.92,13.11-20,32.77"/><path class="cls-9" d="M115.23,40.78s15.39,12,15.1,35.05"/><rect class="cls-10" x="162.29" y="89.84" width="7.5" height="172.66"/><path class="cls-2" d="M142.59,77.05s-4.14-52.83,0-50.83,4.14-1.61,9.2-.06-2.74-1.85,7.83-.4,5.51-.69,13.78-.37,6-1.17,8.28.33.46.5,2.3,1.5-5.06,3,1.84,1,7.82.5,7.82.5L189,77.05"/><polygon class="cls-10" points="188.29 90.23 143.79 90.23 140.79 64.05 191.29 64.05 188.29 90.23"/><line class="cls-11" x1="152.44" y1="31.29" x2="152.44" y2="50.84"/><line class="cls-11" x1="158.62" y1="25.76" x2="158.62" y2="47.3"/><line class="cls-11" x1="180.68" y1="25.72" x2="176.29" y2="59.61"/><path class="cls-5" d="M65.8,145.76s20.87,14.11,43.94,0"/><path class="cls-2" d="M177.64,154.69c-3.42-4.84-11.82-4.46-17.81-2.62s-5.72,9.77-3.15,10.29c0,0-2.09,16.62,4.81,17.47s11.53,2.57,16.15-2.05S181.07,159.54,177.64,154.69Z"/><path class="cls-6" d="M53.75,208.19c0-7.41-9.12-13.41-20.37-13.41S13,200.78,13,208.19l-6.49-.73c0-10.3,12-18.65,26.86-18.65s26.85,8.35,26.85,18.65"/><polygon class="cls-6" points="56.04 261.17 10.72 261.17 4.69 207.04 62.07 207.04 56.04 261.17"/><rect class="cls-6" x="2" y="207.04" width="62.76" height="8.9"/><path class="cls-2" d="M29.49,206s3.63,22.1,3.23,32.56H67.91s1.92-26.74-3.18-32.56Z"/><path class="cls-12" d="M36.08,207.51s.12.75.31,2"/><path class="cls-13" d="M37.52,217c.42,3,.85,6.14,1.15,8.79"/><path class="cls-12" d="M39,229.56a10.66,10.66,0,0,1,0,2h2"/><line class="cls-14" x1="48.63" y1="231.56" x2="57.5" y2="231.56"/><path class="cls-12" d="M61.3,231.56h2s0-.75.06-2"/><path class="cls-15" d="M63.37,224.81A63.21,63.21,0,0,0,62,211.44"/><path class="cls-12" d="M61.25,209.18a6.68,6.68,0,0,0-1-1.72"/><path class="cls-2" d="M22.24,179c-4.84,3.43-4.46,11.82-2.62,17.82s9.77,5.72,10.28,3.15c0,0,16.62,2.09,17.48-4.81S50,183.61,45.32,179,27.08,175.55,22.24,179Z"/><g id="合体_1" data-name="合体 1"><path class="cls-16" d="M488.79,272H241.69a6.58,6.58,0,0,1-4.09-1.33,3.32,3.32,0,0,1-1.36-2.48V149.36l-1.62-.84L214.27,138l20.35-10.52,1.62-.84V6.81a3.32,3.32,0,0,1,1.36-2.48A6.55,6.55,0,0,1,241.69,3h247.1a6.58,6.58,0,0,1,4.09,1.33,3.32,3.32,0,0,1,1.36,2.48V268.19a3.32,3.32,0,0,1-1.36,2.48A6.58,6.58,0,0,1,488.79,272Z"/><path class="cls-17" d="M488.79,269a3.63,3.63,0,0,0,2.45-.81L491.26,7a3,3,0,0,0-2.47-1H241.69a3.61,3.61,0,0,0-2.45.81v118a6,6,0,0,1-3.24,5.33L220.8,138l15.2,7.86a6,6,0,0,1,3.24,5.33l0,116.86a3,3,0,0,0,2.48.95h247.1m0,6H241.69c-4.67,0-8.45-3.05-8.45-6.81v-117L207.74,138l25.5-13.19V6.81C233.24,3.05,237,0,241.69,0h247.1c4.67,0,8.45,3.05,8.45,6.81V268.19C497.24,272,493.46,275,488.79,275Z"/></g></g></g></svg>